<?xml version="1.0" encoding="utf-8"?>
<!-- Generator: Adobe Illustrator 25.0.0, SVG Export Plug-In . SVG Version: 6.00 Build 0)  -->
<svg version="1.1" id="三相戴维南等值电压源" xmlns="http://www.w3.org/2000/svg" xmlns:xlink="http://www.w3.org/1999/xlink"
  class="preview-node"
  style="--width: 115.96875; --height: 78.171875; --scale: 1.0116140490543664; --scale-level: 10.016658978057167; --apx: 0.9885192884922636; --rpx: 0.9913770499922797;"
  width="115.96875" height="78.171875" viewBox="-4.000000000000007 -21.091145833333336 115.96875 78.171875">
  <g data-cell-id="d4fa44e9-fc9d-4feb-976b-dc85cd8aafc0" data-shape="diagram-component" class="x6-cell x6-node"
    data-definition="model/CloudPSS/Thevenin_3p" data-enabled="true" style=" " transform="translate(0,0)">
    <path fill="transparent" fill-opacity="1" stroke="transparent" stroke-opacity="1" stroke-width="2"
      d="m0 0h101.9704861111111v35.98958333333333h-101.9704861111111z"></path>
    <path fill="transparent" fill-opacity="1" stroke="black" stroke-opacity="1" stroke-width="2"
      d="m47.9861111111111 17.994791666666664h11.996527777777775l2.9991319444444438 4.79861111111111h0.011996527777777776l5.98626736111111 -9.59722222222222h0.011996527777777776l5.98626736111111 9.59722222222222h0.011996527777777776l5.98626736111111 -9.59722222222222h0.011996527777777776l5.98626736111111 9.59722222222222h0.011996527777777776l5.98626736111111 -9.59722222222222h0.011996527777777776l2.987135416666666 4.79861111111111h11.996527777777775">
    </path>
    <path fill="transparent" fill-opacity="1" stroke="black" stroke-opacity="1" stroke-width="2"
      d="m11.996527777777775 17.994791666666664m0 -9.59722222222222l0 19.19444444444444m0 -19.19444444444444m-5.9982638888888875 3.5989583333333326l0 11.996527777777775m0 -11.996527777777775m-5.9982638888888875 3.5989583333333326l0 4.79861111111111">
    </path>
    <path fill="#f5f5f5" fill-opacity="1" stroke="black" stroke-opacity="1" stroke-width="2"
      d="m35.98958333333333 5.9982638888888875a11.996527777777775 11.996527777777775 0 1 1 0 23.99305555555555a11.996527777777775 11.996527777777775 0 1 1 0 -23.99305555555555m0 11.996527777777775a3.5989583333333326 3.5989583333333326 0 1 1 0 -7.197916666666665m0 7.197916666666665a3.5989583333333326 3.5989583333333326 0 1 1 0 7.197916666666665m-11.996527777777775 -7.197916666666665h-11.996527777777775">
    </path><text y="-0.15000000000000002em" fill="black" fill-opacity="" font-size="10" text-anchor="middle"
      transform="matrix(1,0,0,1,102,18)" style="transform: matrix(1, 0, 0, 1, 102, 18);">+</text><text y="0.95em"
      fill="black" fill-opacity="" font-size="10" text-anchor="middle" stroke="transparent"
      transform="matrix(1,0,0,1,78,24)" style="transform: matrix(1, 0, 0, 1, 78, 24);">Equi.
      Imp.</text>
  </g>
</svg>