<?xml version="1.0" encoding="utf-8"?>
<!-- Generator: Adobe Illustrator 25.0.0, SVG Export Plug-In . SVG Version: 6.00 Build 0)  -->
<svg version="1.1" id="单相变压器" xmlns="http://www.w3.org/2000/svg" xmlns:xlink="http://www.w3.org/1999/xlink"
  class="preview-node"
  style="--width: 85.15625; --height: 77.765625; --scale: 0.9965494160328031; --scale-level: 9.995013251067936; --apx: 1.0034625317236485; --rpx: 1.0025957764306195;"
  width="85.15625" height="77.765625" viewBox="-4.14742810854597 -4.14742810854597 85.45110621709193 75.80657496709193">
  <g data-cell-id="aa011e0b-33fd-4b62-8592-191e7f07c268" data-shape="diagram-component" class="x6-cell x6-node"
    data-definition="model/CloudPSS/_newTransformer_1p" data-enabled="true" style=" " transform="translate(0,0)">
    <path fill="transparent" fill-opacity="1" stroke="transparent" stroke-opacity="1" stroke-width="1"
      d="m4.822265625 0h67.51171875v67.51171875h-67.51171875z"></path>
    <path fill="transparent" fill-opacity="1" stroke="black" stroke-opacity="1" stroke-width="1"
      d="m0 14.466796875h28.93359375a4.822265625 4.822265625 0 1 1 0 9.64453125a4.822265625 4.822265625 0 1 1 0 9.64453125a4.822265625 4.822265625 0 1 1 0 9.64453125a4.822265625 4.822265625 0 1 1 0 9.64453125h-28.93359375m36.64921875 -38.578125v38.578125m3.8578125 -38.578125v38.578125m36.64921875 -38.578125h-28.93359375a4.822265625 4.822265625 0 1 0 0 9.64453125a4.822265625 4.822265625 0 1 0 0 9.64453125a4.822265625 4.822265625 0 1 0 0 9.64453125a4.822265625 4.822265625 0 1 0 0 9.64453125h28.93359375">
    </path>
    <text y="0.35em" fill="black" fill-opacity="1" font-size="10" font-family="var(--font-family)" text-anchor="start"
      stroke="transparent" transform="matrix(1,0,0,1,50.2,33.8)"
      style="transform: matrix(1, 0, 0, 1, 50.2, 33.8);">#2</text>
    <text y="0.35em" fill="black" fill-opacity="1" font-size="10" font-family="var(--font-family)" text-anchor="end"
      stroke="transparent" transform="matrix(1,0,0,1,27,33.8)"
      style="transform: matrix(1, 0, 0, 1, 27, 33.8);">#1</text>
    <text y="0.85em" fill="black" fill-opacity="1" font-size="10" font-family="var(--font-family)" text-anchor="middle"
      stroke="transparent" transform="matrix(1,0,0,1,4.8,14.5)"
      style="transform: matrix(1, 0, 0, 1, 4.8, 14.5);">+</text>
    <text y="0.85em" fill="black" fill-opacity="1" font-size="10" font-family="var(--font-family)" text-anchor="middle"
      stroke="transparent" transform="matrix(1,0,0,1,72.3,14.5)"
      style="transform: matrix(1, 0, 0, 1, 72.3, 14.5);">+</text>
  </g>
</svg>