<?xml version="1.0" encoding="utf-8"?>
<!-- Generator: Adobe Illustrator 25.0.0, SVG Export Plug-In . SVG Version: 6.00 Build 0)  -->
<svg version="1.1" id="图层_1" xmlns="http://www.w3.org/2000/svg" xmlns:xlink="http://www.w3.org/1999/xlink" x="0px" y="0px"
	 viewBox="0 0 128 124" style="enable-background:new 0 0 128 124;" xml:space="preserve">
<style type="text/css">
	.st0{fill:none;stroke:#000000;}
	.st1{fill:none;}
	.st2{font-family:'ArialMT';}
	.st3{font-size:12px;}
	.st4{font-size:10px;}
</style>
<path class="st0" d="M24.3,62c0-22.1,17.9-40,40-40s40,17.9,40,40s-17.9,40-40,40S24.3,84.1,24.3,62z"/>
<path class="st0" d="M54.3,62c0-3.3,2.2-6,5-6s5,2.7,5,6c0,3.3,2.2,6,5,6c2.8,0,5-2.7,5-6 M24.3,22l8,16 M4.3,22h20 M19.3,17l5,5
	l-5,5 M24.3,102l8-16 M4.3,102h20 M104.3,62h20 M103,52h11.3 M103,72h11.3 M114.3,42v40 M39.3,14h8.8c0,2.2,1.8,4,4,4s4-1.8,4-4h0.1
	c0,2.2,1.8,4,4,4s4-1.8,4-4h0.1c0,2.2,1.8,4,4,4s4-1.8,4-4h0.1c0,2.2,1.8,4,4,4s4-1.8,4-4h8.9 M44.3,2h12v8 M52.3,6l4,4l4-4 M84.3,2
	h-12v8"/>
<path class="st1" d="M24.3,102h80v20h-80V102z"/>
<text transform="matrix(1 0 0 1 60.3171 51.4)" class="st2 st3">S</text>
<text transform="matrix(1 0 0 1 60.3171 51.4)" class="st0 st2 st3">S</text>
<text transform="matrix(1 0 0 1 4.3192 17.5)" class="st2 st4">ω</text>
<text transform="matrix(1 0 0 1 4.3192 97.5)" class="st2 st4">Te</text>
<text transform="matrix(1 0 0 1 39.595 11.5)" class="st2 st4">Ef</text>
<text transform="matrix(1 0 0 1 81.5408 11.5)" class="st2 st4">If</text>
<text transform="matrix(1 0 0 1 62.6542 31.5)" class="st2 st4">r</text>
<text transform="matrix(1 0 0 1 96.3192 65.5)" class="st2 st4">s</text>
</svg>
